# AST/ASF file generated using VICON BodyLanguage
# -----------------------------------------------
:version 1.10
:name VICON
:units
  mass 1.0
  length 0.45
  angle deg
:documentation
   .ast/.asf automatically generated from VICON data using
   VICON BodyBuilder and BodyLanguage model FoxedUp or BRILLIANT.MOD
:root
   order TX TY TZ RX RY RZ
   axis XYZ
   position 0 0 0  
   orientation 0 0 0 
:bonedata
  begin
     id 1 
     name lhipjoint
     direction 0.702568 -0.596508 0.388042 
     length 2.56661 
     axis 0 0 0  XYZ
  end
  begin
     id 2 
     name lfemur
     direction 0.34202 -0.939693 0  
     length 6.58374  
     axis 0 0 20  XYZ
    dof rx ry rz
    limits (-160.0 20.0)
           (-70.0 70.0)
           (-60.0 70.0)
  end
  begin
     id 3 
     name ltibia
     direction 0.34202 -0.939693 0   
     length 6.62538   
     axis 0 0 20   XYZ
    dof rx
    limits (-10.0 170.0)
  end
  begin
     id 4 
     name lfoot
     direction 0.10455 -0.287249 0.952133   
     length 2.26699   
     axis -90 7.62852e-016 20   XYZ
    dof rx rz
    limits (-45.0 90.0)
           (-70.0 20.0)
  end
  begin
     id 5 
     name ltoes
     direction 1.53572e-011 -4.22322e-011 1   
     length 1.12949   
     axis -90 7.62852e-016 20   XYZ
    dof rx
    limits (-90.0 20.0)
  end
  begin
     id 6 
     name rhipjoint
     direction -0.728055 -0.574632 0.373811   
     length 2.66432  
     axis 0 0 0  XYZ 
  end
  begin
     id 7 
     name rfemur
     direction -0.34202 -0.939693 0   
     length 6.66732   
     axis 0 0 -20   XYZ
    dof rx ry rz
    limits (-160.0 20.0)
           (-70.0 70.0)
           (-70.0 60.0)
  end
  begin
     id 8 
     name rtibia
     direction -0.34202 -0.939693 0   
     length 6.59288   
     axis 0 0 -20   XYZ
    dof rx
    limits (-10.0 170.0)
 end
 begin
     id 9 
     name rfoot
     direction -0.119193 -0.327479 0.93731   
     length 2.38061  
     axis -90 -7.62852e-016 -20   XYZ
    dof rx rz
    limits (-45.0 90.0)
           (-20.0 70.0)
  end
  begin
     id 10 
     name rtoes
     direction -1.53547e-011 -4.21827e-011 1   
     length 1.17899   
     axis -90 -7.62852e-016 -20   XYZ
    dof rx
    limits (-90.0 20.0)
  end
  begin
     id 11 
     name lowerback
     direction -0.000416114 0.999912 -0.0132284   
     length 2.12109   
     axis 0 0 0   XYZ
    dof rx ry rz
    limits (-20.0 45.0)
           (-30.0 30.0)
           (-30.0 30.0)
  end
  begin
     id 12 
     name upperback
     direction -0.00136371 0.99809 0.0617608   
     length 2.10067   
     axis 0 0 0   XYZ
    dof rx ry rz
    limits (-20.0 45.0)
           (-30.0 30.0)
           (-30.0 30.0)
  end
  begin
     id 13 
     name thorax
     direction -3.43026e-005 0.997776 0.0666515   
     length 2.10618   
     axis 0 0 0   XYZ
    dof rx ry rz
    limits (-20.0 45.0)
           (-30.0 30.0)
           (-30.0 30.0)
  end
  begin
     id 14 
     name lowerneck
     direction 0.0398646 0.998418 0.0396592   
     length 1.83817   
     axis 0 0 0   XYZ
    dof rx ry rz
    limits (-20.0 45.0)
           (-30.0 30.0)
           (-30.0 30.0)
  end
  begin
     id 15 
     name upperneck
     direction -0.0367268 0.961527 -0.272244   
     length 1.81975   
     axis 0 0 0   XYZ
    dof rx ry rz
    limits (-20.0 45.0)
           (-30.0 30.0)
           (-30.0 30.0)
  end
  begin
     id 16
     name head
     direction -0.0182665 0.99536 -0.0944669  
     length 1.86026  
     axis 0 0 0   XYZ
    dof rx ry rz
    limits (-20.0 45.0)
           (-30.0 30.0)
           (-30.0 30.0)
  end
  begin
     id 17 
     name lclavicle
     direction 0.924239 0.361045 0.124212  
     length 3.26878  
     axis 0 0 0   XYZ
    dof ry rz
    limits (-20.0 10.0)
           (0.0 20.0)
  end
  begin
     id 18 
     name lhumerus
     direction 1 -4.48968e-011 -2.56583e-027   
     length 4.58538   
     axis 180 -30 -90   XYZ
    dof rx ry rz
    limits (-60.0 90.0)
           (-90.0 90.0)
           (-90.0 90.0)
  end
  begin
     id 19
     name lradius
     direction 1 -4.4898e-011 -5.50375e-027   
     length 2.68935   
     axis 180 -30 -90   XYZ
    dof rx
    limits (-10.0 170.0)
  end
  begin
     id 20
     name lwrist
     direction 1 -4.48939e-011 -1.48955e-026   
     length 1.34468   
     axis 9.0955e-015 90 90   XYZ
    dof ry
    limits (-180.0 0.0)
 end
  begin
     id 21 
     name lhand
     direction 1 -4.48936e-011 -2.97907e-026   
     length 0.585058   
     axis 1.90115e-014 90 90   XYZ
    dof rx rz
    limits (-90.0 90.0)
           (-45.0 45.0)
  end
  begin
     id 22 
     name lfingers
     direction 1 -4.49082e-011 -5.96235e-026   
     length 0.471689   
     axis 3.80223e-014 90 90   XYZ
    dof rx
    limits (0.0 90.0)
  end
  begin
     id 23
     name lthumb
     direction 0.707107 -6.3489e-011 0.707107   
     length 0.677253   
     axis -90 45 -3.84942e-014   XYZ
    dof rx rz
    limits (-45.0 45.0)
           (-45.0 45.0)
  end
  begin
     id 24 
     name rclavicle
     direction -0.923098 0.371783 0.0983239   
     length 3.19656  
     axis 0 0 0   XYZ 
    dof ry rz
    limits (-10.0 20.0)
           (-20.0 0.0)
  end
  begin
     id 25 
     name rhumerus
     direction -1 -4.48976e-011 -2.5492e-027  
     length 4.4745   
     axis 180 30 90   XYZ
    dof rx ry rz
    limits (-90.0 60.0)
           (-90.0 90.0)
           (-90.0 90.0)
  end
  begin
     id 26 
     name rradius
     direction -1 -4.48941e-011 -4.36555e-027   
     length 2.93896   
     axis 180 30 90   XYZ
    dof rx
    limits (-10.0 170.0)
  end
  begin
     id 27 
     name rwrist
     direction -1 -4.49044e-011 -1.49032e-026   
     length 1.46948   
     axis 9.0955e-015 -90 -90   XYZ
    dof ry
    limits (-180.0 0.0)
  end
  begin
     id 28
     name rhand
     direction -1 -4.48826e-011 -2.97749e-026   
     length 0.405092   
     axis 1.90115e-014 -90 -90   XYZ
    dof rx rz
    limits (-90.0 90.0)
           (-45.0 45.0)
  end
  begin
     id 29
     name rfingers
     direction -1 -4.49209e-011 -5.96602e-026   
     length 0.326596   
     axis 3.80223e-014 -90 -90   XYZ
    dof rx
    limits (0.0 90.0)
  end
  begin
     id 30
     name rthumb
     direction -0.707107 -6.34776e-011 0.707107   
     length 0.468928   
     axis -90 -45 3.84942e-014   XYZ
    dof rx rz
    limits (-45.0 45.0)
           (-45.0 45.0)
  end
:hierarchy
  begin
    root lhipjoint rhipjoint lowerback
    lhipjoint lfemur
    lfemur ltibia
    ltibia lfoot
    lfoot ltoes
    rhipjoint rfemur
    rfemur rtibia
    rtibia rfoot
    rfoot rtoes
    lowerback upperback
    upperback thorax
    thorax lowerneck lclavicle rclavicle
    lowerneck upperneck
    upperneck head
    lclavicle lhumerus
    lhumerus lradius
    lradius lwrist
    lwrist lhand lthumb
    lhand lfingers
    rclavicle rhumerus
    rhumerus rradius
    rradius rwrist
    rwrist rhand rthumb
    rhand rfingers
  end

#!OML:ASF H:\Punching\Project 1\Capture day 1\Session 1\female.ASF
:FULLY-SPECIFIED
:DEGREES
547
root 1.43596 14.388 -0.464926 18.5818 23.6566 8.6828
lowerback -2.18926 -2.10872 -0.92881
upperback -7.97973 -2.65934 2.41829
thorax -6.93025 -1.15236 3.14667
lowerneck -14.2159 -1.4807 2.74309
upperneck 30.9782 -1.23959 -4.92427
head 12.5642 -0.812986 -2.53585
rclavicle 2.38045e-014 4.29375e-014
rhumerus 18.6705 7.84366 -58.9479
rradius 132.387
rwrist -14.6948
rhand -30.2398 6.24608
rfingers 7.12502
rthumb -3.54905 -23.7041
lclavicle 2.38045e-014 4.29375e-014
lhumerus 11.1133 -29.5998 75.0016
lradius 134.909
lwrist 0.164329
lhand -21.3469 -1.20176
lfingers 7.12502
lthumb 5.03937 28.7183
rfemur -55.2511 -21.2465 7.13582
rtibia 57.2589
rfoot -13.2885 -14.8324
rtoes 7.61738
lfemur -2.65779 -15.0383 -17.2376
ltibia 22.4518
lfoot -31.9939 23.3941
ltoes -11.6504
548
root 1.47976 14.3834 -0.5252 18.5862 23.6653 8.63683
lowerback -2.18991 -2.01671 -0.945669
upperback -7.98434 -2.53452 2.43142
thorax -6.94117 -1.08808 3.16584
lowerneck -14.1314 -1.58714 2.70662
upperneck 30.9734 -1.40132 -4.86275
head 12.537 -0.879705 -2.52697
rclavicle -2.35808e-014 2.54444e-014
rhumerus 18.5789 7.93205 -59.1912
rradius 132.585
rwrist -14.7082
rhand -30.2116 6.37913
rfingers 7.12502
rthumb -3.52182 -23.5715
lclavicle -2.35808e-014 2.54444e-014
lhumerus 11.1625 -29.6882 74.9543
lradius 134.94
lwrist 0.185421
lhand -21.124 -0.99339
lfingers 7.12502
lthumb 5.25466 28.9215
rfemur -55.1331 -20.9681 6.72407
rtibia 56.9974
rfoot -13.4988 -14.8848
rtoes 6.72861
lfemur -2.75773 -15.3693 -17.5337
ltibia 22.4106
lfoot -32.5256 23.9921
ltoes -10.7731
549
root 1.52155 14.3775 -0.582351 18.5894 23.6346 8.5852
lowerback -2.19074 -1.9177 -0.957139
upperback -7.99486 -2.40096 2.42986
thorax -6.95982 -1.02016 3.16646
lowerneck -14.0459 -1.68746 2.67031
upperneck 30.9721 -1.55626 -4.79429
head 12.5117 -0.942557 -2.5145
rclavicle -4.84538e-015 -1.11319e-014
rhumerus 18.4781 8.04033 -59.4283
rradius 132.78
rwrist -14.6493
rhand -30.2106 6.52098
rfingers 7.12502
rthumb -3.52083 -23.4297
lclavicle -4.84538e-015 -1.11319e-014
lhumerus 11.2029 -29.7631 74.898
lradius 134.972
lwrist 0.213768
lhand -20.9268 -0.777117
lfingers 7.12502
lthumb 5.44502 29.1329
rfemur -55.0452 -20.6729 6.3286
rtibia 56.7718
rfoot -13.6698 -14.868
rtoes 5.79986
lfemur -2.83394 -15.7083 -17.8207
ltibia 22.3658
lfoot -33.0047 24.6154
ltoes -10.0637
550
root 1.56124 14.371 -0.636058 18.5931 23.5737 8.53361
lowerback -2.19804 -1.81578 -0.967687
upperback -8.00265 -2.26447 2.41319
thorax -6.97258 -0.951583 3.15016
lowerneck -13.9778 -1.77768 2.63683
upperneck 30.9739 -1.70075 -4.71622
head 12.4923 -0.999406 -2.49773
rclavicle 8.26944e-014 -5.56597e-014
rhumerus 18.3748 8.16796 -59.6586
rradius 132.967
rwrist -14.4754
rhand -30.2573 6.64836
rfingers 7.12502
rthumb -3.5659 -23.3016
lclavicle 8.26944e-014 -5.56597e-014
lhumerus 11.2555 -29.8285 74.8191
lradius 135.004
lwrist 0.260643
lhand -20.7692 -0.558462
lfingers 7.12502
lthumb 5.59719 29.3476
rfemur -54.9745 -20.368 5.94087
rtibia 56.5666
rfoot -13.7541 -14.7927
rtoes 4.9078
lfemur -2.89175 -16.0393 -18.0944
ltibia 22.3201
lfoot -33.412 25.2269
ltoes -9.51922
551
root 1.59853 14.3651 -0.68597 18.5944 23.4906 8.48593
lowerback -2.20948 -1.71404 -0.982957
upperback -8.00593 -2.12942 2.38027
thorax -6.97832 -0.884255 3.11916
lowerneck -13.923 -1.8564 2.61375
upperneck 30.9759 -1.83465 -4.62917
head 12.4765 -1.04936 -2.47808
rclavicle 5.6107e-014 -3.49861e-014
rhumerus 18.2714 8.31391 -59.888
rradius 133.119
rwrist -14.1677
rhand -30.3652 6.74944
rfingers 7.12502
rthumb -3.67009 -23.1987
lclavicle 5.6107e-014 -3.49861e-014
lhumerus 11.3121 -29.8972 74.7215
lradius 135.032
lwrist 0.327362
lhand -20.6767 -0.369093
lfingers 7.12502
lthumb 5.68647 29.5346
rfemur -54.8973 -20.0539 5.55246
rtibia 56.36
rfoot -13.7376 -14.6778
rtoes 4.12726
lfemur -2.93766 -16.3268 -18.349
ltibia 22.2831
lfoot -33.7138 25.7849
ltoes -9.19553
552
root 1.63306 14.361 -0.731723 18.5911 23.3928 8.4456
lowerback -2.22541 -1.6154 -1.01067
upperback -7.99985 -1.99997 2.33222
thorax -6.97098 -0.819862 3.07897
lowerneck -13.8889 -1.92435 2.60186
upperneck 30.9805 -1.95868 -4.53526
head 12.4668 -1.09294 -2.45687
rclavicle 3.5334e-014 1.11319e-014
rhumerus 18.16 8.46926 -60.118
rradius 133.243
rwrist -13.7514
rhand -30.5115 6.89743
rfingers 7.12502
rthumb -3.81144 -23.0482
lclavicle 3.5334e-014 1.11319e-014
lhumerus 11.3792 -29.976 74.6062
lradius 135.063
lwrist 0.400159
lhand -20.6321 -0.164944
lfingers 7.12502
lthumb 5.7296 29.7376
rfemur -54.7952 -19.7284 5.16089
rtibia 56.128
rfoot -13.6278 -14.5446
rtoes 3.43383
lfemur -2.97914 -16.5427 -18.5765
ltibia 22.2655
lfoot -33.9224 26.2106
ltoes -8.98929
553
root 1.66458 14.3595 -0.772922 18.5812 23.2867 8.42311
lowerback -2.24148 -1.52491 -1.06373
upperback -7.98095 -1.88327 2.26848
thorax -6.94855 -0.761252 3.0366
lowerneck -13.8762 -1.98051 2.60536
upperneck 30.9845 -2.07177 -4.43737
head 12.4619 -1.12959 -2.43573
rclavicle -1.44119e-015 -1.59028e-015
rhumerus 18.0376 8.64955 -60.3572
rradius 133.339
rwrist -13.2323
rhand -30.6995 6.89666
rfingers 7.12502
rthumb -3.99294 -23.0457
lclavicle -1.44119e-015 -1.59028e-015
lhumerus 11.4446 -30.063 74.4791
lradius 135.105
lwrist 0.504761
lhand -20.6026 0.0473627
lfingers 7.12502
lthumb 5.75804 29.9491
rfemur -54.6549 -19.4036 4.76484
rtibia 55.8557
rfoot -13.4228 -14.4055
rtoes 2.85471
lfemur -3.0172 -16.6495 -18.7795
ltibia 22.2668
lfoot -34.0327 26.4501
ltoes -8.85182
554
root 1.69257 14.3613 -0.809059 18.5665 23.1732 8.4229
lowerback -2.25418 -1.44511 -1.15519
upperback -7.95466 -1.78277 2.19065
thorax -6.91844 -0.709076 3.00152
lowerneck -13.8782 -2.0254 2.62025
upperneck 30.995 -2.17423 -4.33256
head 12.4634 -1.15936 -2.41296
rclavicle -1.01032e-013 -2.22639e-014
rhumerus 17.8828 8.85257 -60.6169
rradius 133.409
rwrist -12.6744
rhand -30.8951 6.80049
rfingers 7.12502
rthumb -4.18183 -23.1382
lclavicle -1.01032e-013 -2.22639e-014
lhumerus 11.4765 -30.1624 74.357
lradius 135.164
lwrist 0.62277
lhand -20.5772 0.259986
lfingers 7.12502
lthumb 5.78257 30.1611
rfemur -54.4822 -19.0827 4.37321
rtibia 55.5385
rfoot -13.1039 -14.2973
rtoes 2.45366
lfemur -3.05493 -16.6091 -18.9563
ltibia 22.2745
lfoot -34.0314 26.4826
ltoes -8.77716
555
root 1.71671 14.366 -0.840043 18.5566 23.0453 8.46041
lowerback -2.2707 -1.37827 -1.30795
upperback -7.91825 -1.70194 2.09842
thorax -6.87295 -0.663813 2.98609
lowerneck -13.9087 -2.05711 2.651
upperneck 31.0241 -2.26229 -4.22845
head 12.4791 -1.18094 -2.39244
rclavicle 4.73604e-014 1.27222e-014
rhumerus 17.6994 9.07929 -60.9025
rradius 133.453
rwrist -12.1328
rhand -31.061 6.60427
rfingers 7.12502
rthumb -4.34203 -23.3312
lclavicle 4.73604e-014 1.27222e-014
lhumerus 11.4755 -30.2621 74.2439
lradius 135.234
lwrist 0.742507
lhand -20.5394 0.479803
lfingers 7.12502
lthumb 5.81902 30.3799
rfemur -54.3025 -18.7743 3.98655
rtibia 55.186
rfoot -12.6348 -14.2417
rtoes 2.28202
lfemur -3.08547 -16.4182 -19.1268
ltibia 22.2636
lfoot -33.9239 26.3284
ltoes -8.71727
556
root 1.737 14.373 -0.865917 18.5548 22.9002 8.53224
lowerback -2.29149 -1.32366 -1.52001
upperback -7.87348 -1.63937 1.99431
thorax -6.81403 -0.624816 2.9919
lowerneck -13.9842 -2.07619 2.69412
upperneck 31.0841 -2.33588 -4.12631
head 12.5175 -1.19472 -2.37475
rclavicle 2.00276e-014 1.59028e-014
rhumerus 17.5002 9.32052 -61.2133
rradius 133.46
rwrist -11.6691
rhand -31.1653 6.33411
rfingers 7.12502
rthumb -4.44277 -23.5993
lclavicle 2.00276e-014 1.59028e-014
lhumerus 11.4305 -30.3481 74.149
lradius 135.321
lwrist 0.875755
lhand -20.4466 0.69443
lfingers 7.12502
lthumb 5.90863 30.592
rfemur -54.1421 -18.4864 3.62302
rtibia 54.811
rfoot -11.9694 -14.2678
rtoes 2.37408
lfemur -3.1027 -16.0949 -19.2966
ltibia 22.2093
lfoot -33.707 26.0529
ltoes -8.69826
557
root 1.75371 14.382 -0.887074 18.5613 22.7312 8.62641
lowerback -2.31476 -1.28028 -1.77915
upperback -7.82743 -1.59295 1.88273
thorax -6.75087 -0.591463 3.0169
lowerneck -14.0995 -2.0784 2.75382
upperneck 31.1821 -2.38745 -4.03391
head 12.5806 -1.19765 -2.36261
rclavicle 1.40392e-014 -1.90833e-014
rhumerus 17.2791 9.57801 -61.555
rradius 133.43
rwrist -11.3344
rhand -31.1775 6.08444
rfingers 7.12502
rthumb -4.45458 -23.8487
lclavicle 1.40392e-014 -1.90833e-014
lhumerus 11.3293 -30.4081 74.0828
lradius 135.419
lwrist 1.00384
lhand -20.2946 0.898737
lfingers 7.12502
lthumb 6.05539 30.7922
rfemur -54.0205 -18.2119 3.29732
rtibia 54.4275
rfoot -11.1034 -14.3749
rtoes 2.71212
lfemur -3.09728 -15.686 -19.4706
ltibia 22.095
lfoot -33.402 25.7396
ltoes -8.72577
558
root 1.7676 14.3923 -0.904055 18.5673 22.5351 8.71692
lowerback -2.34742 -1.24283 -2.04904
upperback -7.79063 -1.55438 1.76518
thorax -6.69216 -0.56152 3.04206
lowerneck -14.2089 -2.06733 2.83004
upperneck 31.313 -2.42065 -3.95262
head 12.6566 -1.19123 -2.35583
rclavicle -4.60187e-014 -1.59028e-015
rhumerus 17.0257 9.85275 -61.9231
rradius 133.364
rwrist -11.1563
rhand -31.0897 5.94742
rfingers 7.12502
rthumb -4.36971 -23.9875
lclavicle -4.60187e-014 -1.59028e-015
lhumerus 11.1532 -30.4439 74.0554
lradius 135.534
lwrist 1.14461
lhand -20.0585 1.09316
lfingers 7.12502
lthumb 6.28337 30.98
rfemur -53.9415 -17.9377 3.03025
rtibia 54.0417
rfoot -10.1029 -14.5484
rtoes 3.17619
lfemur -3.0612 -15.2505 -19.6422
ltibia 21.9233
lfoot -33.0491 25.4672
ltoes -8.77644
